<svg width="93" height="61" viewBox="0 0 93 61" fill="none" xmlns="http://www.w3.org/2000/svg">
<path d="M90.9516 19.2437C91.5291 17.9836 91.9989 16.6498 92.2779 15.2867C92.4961 14.1887 92.5617 13.095 92.4761 11.9832C92.3822 10.7859 91.9668 9.64538 91.4308 8.5738C90.9021 7.52955 90.1026 6.59448 89.2403 5.80797C88.2558 4.89316 87.098 4.17852 85.8925 3.58646C84.26 2.79404 82.5421 2.22948 80.7802 1.80115C79.089 1.3905 77.3241 1.08744 75.5831 0.982938C75.5968 0.979277 75.6054 0.984272 75.619 0.980611C75.6017 0.970611 75.5881 0.974272 75.5744 0.977933C75.4988 0.968914 75.4318 0.964899 75.3599 0.96954C75.3462 0.973201 75.3375 0.968201 75.3239 0.971862C75.2482 0.962843 75.1813 0.958814 75.1056 0.949795C75.1503 0.952475 75.1863 0.950179 75.2309 0.952859C74.9854 0.938121 74.7362 0.9097 74.4807 0.912283C74.3244 0.902905 74.1682 0.893527 74.012 0.884149C73.7355 0.863072 73.4329 0.826999 73.1501 0.836902C73.0831 0.832882 73.0162 0.828859 72.9406 0.81984C72.9492 0.824839 72.9629 0.821186 72.9716 0.826186C72.9183 0.818506 72.8686 0.824491 72.824 0.821811C72.7707 0.814132 72.721 0.820085 72.6677 0.812406C71.6893 0.767117 70.7018 0.797475 69.7294 0.801828C68.7842 0.79886 67.8424 0.890171 66.9032 0.936843C65.1055 1.03055 63.3111 1.21854 61.5167 1.40653C59.6007 1.60514 57.6784 1.83471 55.7757 2.11028C51.943 2.66874 48.1189 3.23221 44.2908 3.86263C42.3085 4.19615 40.3298 4.54332 38.3411 4.90781C38.3275 4.91147 38.3138 4.91515 38.3002 4.91881C38.3002 4.91881 38.2915 4.91379 38.2865 4.92245C38.1686 4.94673 38.037 4.97465 37.9103 4.99393C37.924 4.99027 37.9377 4.98663 37.9377 4.98663C37.8197 5.01091 37.7018 5.0352 37.5975 5.05582C37.5615 5.05814 37.5206 5.06915 37.4846 5.07147C36.5547 5.26206 35.6212 5.43898 34.6863 5.63823C34.7546 5.61993 34.8315 5.60663 34.9085 5.59333C34.8315 5.60663 34.7409 5.62357 34.659 5.64554C34.6726 5.64187 34.6863 5.63824 34.7086 5.63957C34.6453 5.64922 34.5907 5.66388 34.536 5.67852C34.5224 5.68218 34.5087 5.68582 34.4864 5.68448C30.7582 6.44186 27.0823 7.44878 23.399 8.42839C21.4779 8.93583 19.5678 9.48425 17.6627 10.024C15.8582 10.5295 14.0673 11.0313 12.2738 11.5778C11.5758 11.7867 10.9074 12.0244 10.3459 12.497C9.85538 12.9066 9.57372 13.4945 9.66013 14.1448C9.74422 14.7592 10.1584 15.3216 10.7404 15.5537C11.0425 15.6704 11.3063 15.7534 11.6375 15.7599C11.8743 15.7696 12.1126 15.757 12.3458 15.7531C12.6733 15.7459 13.0044 15.7523 13.3269 15.7538C13.4248 15.7641 13.5314 15.7795 13.638 15.7948C14.4412 15.9237 15.2579 15.5292 15.579 14.733C15.6467 14.5758 15.6833 14.4123 15.6977 14.2474C16.5137 14.0141 17.3333 13.7945 18.1443 13.5699C20.181 13.0022 22.2177 12.4345 24.2581 11.8804C26.0626 11.375 27.8817 10.9241 29.6972 10.4596C31.535 9.99649 33.3837 9.57429 35.2275 9.16077C35.3778 9.12051 35.5317 9.09393 35.6856 9.06733C35.6583 9.07465 35.6223 9.07695 35.6 9.07561C36.4343 8.91064 37.2598 8.74066 38.0941 8.57568C38.1574 8.56604 38.2207 8.5564 38.2804 8.5331L38.294 8.52947C38.294 8.52947 38.299 8.5208 38.3077 8.5258C38.4033 8.50018 38.5026 8.48819 38.5982 8.46257C38.5845 8.46623 38.5709 8.46991 38.5436 8.47723C38.5846 8.46625 38.6342 8.46026 38.6752 8.44928C38.7025 8.44196 38.7385 8.43965 38.7658 8.43232C38.7435 8.43098 38.7298 8.43466 38.7112 8.44698C38.7335 8.44832 38.7471 8.44465 38.7658 8.43232C38.8204 8.41768 38.8701 8.41169 38.911 8.40071C38.9384 8.39339 38.9657 8.38608 38.988 8.38742C38.9607 8.39474 38.9384 8.39339 38.9197 8.40571L38.9334 8.40205C40.7968 8.03452 42.6835 7.72665 44.5566 7.42242C46.3217 7.12515 48.0904 6.84153 49.8579 6.58024C53.8272 5.98518 57.7879 5.38511 61.7738 4.96129C63.2344 4.81151 64.6986 4.67541 66.1578 4.54795C67.2049 4.49432 68.252 4.44066 69.3041 4.37836C69.8525 4.34855 70.4018 4.37704 70.9525 4.38321C71.4003 4.38769 71.8544 4.36121 72.3058 4.37934C72.3145 4.38434 72.3281 4.38065 72.3281 4.38065C72.4037 4.38967 72.4707 4.39369 72.5426 4.38905C72.5563 4.38538 72.5787 4.38675 72.5873 4.39175C72.6679 4.39211 72.7435 4.40113 72.8328 4.40649C72.7522 4.40613 72.6766 4.39708 72.6096 4.39306C72.8638 4.4128 73.1266 4.43757 73.3908 4.43998C73.5557 4.45436 73.717 4.45508 73.8819 4.46946C74.1584 4.49053 74.4609 4.52661 74.7524 4.52171C74.8417 4.52707 74.9223 4.52742 75.0116 4.53278L75.0202 4.53779C75.0872 4.54181 75.1542 4.54582 75.2211 4.54984C76.3481 4.65781 77.4501 4.80908 78.5631 5.00133C79.7144 5.22724 80.858 5.50644 81.9703 5.85993C82.8397 6.15404 83.6792 6.50014 84.5022 6.89451C84.428 6.86317 84.3586 6.82317 84.2843 6.79183C84.767 7.03585 85.2483 7.30218 85.701 7.59816C86.062 7.8528 86.4008 8.10613 86.7332 8.39041C86.9876 8.62969 87.2371 8.87764 87.4679 9.1379C87.664 9.37817 87.8465 9.62206 88.0153 9.86964C88.1422 10.0699 88.2554 10.2738 88.3636 10.4864C88.4668 10.7077 88.5563 10.9326 88.6409 11.1661C88.7081 11.3897 88.758 11.6033 88.8165 11.8218C88.8551 12.075 88.8937 12.3282 88.9099 12.5801C88.9262 12.832 88.9201 13.0825 88.914 13.333C88.8813 13.7298 88.8362 14.1079 88.7674 14.507C88.6496 15.051 88.5009 15.5886 88.3348 16.1163C88.022 16.998 87.6659 17.8548 87.2566 18.7038C86.8962 19.408 86.5149 20.0885 86.0939 20.7577C85.6519 21.4032 85.1803 22.02 84.6654 22.6118C83.9836 23.3729 83.2474 24.0679 82.4816 24.7343C82.5339 24.6837 82.5999 24.6294 82.6522 24.5788C81.7695 25.3277 80.8411 26.0157 79.8881 26.6664C78.5732 27.5238 77.2091 28.3066 75.8129 29.0248C74.836 29.4769 73.8641 29.9203 72.8871 30.3724C72.3614 30.6231 71.7826 30.7855 71.2459 30.9952C70.7191 31.1876 70.196 31.3937 69.6692 31.5861C68.5227 31.9518 67.3836 32.3449 66.2261 32.6697C65.5791 32.8504 64.932 33.0311 64.29 33.2031C63.6976 33.3691 63.1039 33.5575 62.5042 33.6962C61.2364 33.992 59.9883 34.3337 58.7133 34.6022C57.4383 34.8706 56.1682 35.1304 54.9069 35.3952C53.0821 35.7158 51.261 36.05 49.4339 36.3346C47.3586 36.6491 45.2797 36.9499 43.1971 37.2371C39.3384 37.7805 35.4581 38.1614 31.5851 38.5696C28.2122 38.9317 24.8333 39.2441 21.4481 39.5875C18.0492 39.9345 14.6516 40.2593 11.2408 40.507C11.3127 40.5024 11.3897 40.4891 11.4703 40.4894C10.0311 40.5823 8.61555 40.6541 7.189 40.685C7.04713 40.5107 6.91028 40.3277 6.78708 40.1411C6.72548 40.0478 6.66883 39.9459 6.62089 39.8489C6.58527 39.7706 6.55829 39.6973 6.52267 39.619C6.52035 39.583 6.50437 39.5507 6.50205 39.5147C6.49473 39.4874 6.49609 39.4651 6.49743 39.4427C6.49876 39.4204 6.49513 39.4068 6.49647 39.3845C6.49647 39.3845 6.50147 39.3758 6.49781 39.3621C6.49781 39.3621 6.4978 39.3621 6.5028 39.3535C6.5078 39.3448 6.5128 39.3362 6.5178 39.3275C6.5378 39.2929 6.55779 39.2582 6.57779 39.2236C6.6028 39.1803 6.63642 39.142 6.66509 39.1123C6.90937 38.8492 7.16602 38.6048 7.44494 38.3617C8.88152 37.1934 10.4686 36.2045 12.0137 35.1682C13.4606 34.2022 14.9161 33.2412 16.2927 32.1769C17.7489 31.0547 19.1878 29.9225 20.6143 28.7715C21.2168 28.288 21.8033 27.7722 22.3972 27.2836C22.7607 26.9739 23.1293 26.6555 23.4928 26.3458C24.0643 25.8559 24.6915 25.4097 25.0505 24.7279C25.4195 24.0287 25.3452 23.1775 24.7797 22.597C24.2302 22.0488 23.3167 21.8909 22.6426 22.2985C21.8056 22.8083 21.0338 23.425 20.2461 24.0094C19.3887 24.6344 18.535 25.2731 17.6776 25.8982C16.1121 27.0497 14.5465 28.2013 12.9724 29.3478C11.4305 30.4783 9.88141 31.5816 8.32725 32.6934C7.5595 33.2432 6.79907 33.8203 6.03498 34.3837C4.47814 35.5403 2.96555 36.7801 1.72342 38.2915C1.0612 39.0985 0.514889 40.0648 0.41094 41.1249C0.32101 42.1006 0.760435 43.1395 1.63512 43.6445C2.3799 44.0745 3.23675 44.1305 4.07493 44.1987C4.60562 44.2395 5.15131 44.2543 5.68834 44.2642C6.42204 44.9534 7.20674 45.6142 8.02642 46.2145C8.82513 46.7911 9.61746 47.3987 10.4498 47.937C12.0489 48.9872 13.6581 50.0202 15.3122 50.9752C18.7157 52.9402 22.1291 54.8879 25.6026 56.7316C26.6582 57.2833 27.7224 57.84 28.793 58.3657C30.0158 58.9678 31.2722 59.5315 32.45 60.2115C33.2814 60.6915 34.3829 60.4037 34.8679 59.5637C35.3479 58.7323 35.0601 57.6308 34.22 57.1458C33.3713 56.6558 32.464 56.2474 31.5853 55.8094C30.7066 55.3713 29.8279 54.9333 28.9541 54.4866C27.276 53.6332 25.6366 52.7329 23.9884 51.8275C22.3663 50.9371 20.7455 50.0245 19.1433 49.0995C18.3206 48.6245 17.4965 48.1718 16.6838 47.6794C15.8711 47.1871 15.0347 46.7158 14.2283 46.1925C13.5258 45.7292 12.8184 45.2745 12.1159 44.8112C11.7722 44.5666 11.4334 44.3133 11.0984 44.0736C11.2063 44.0667 11.3143 44.0597 11.4222 44.0528C15.3218 43.7985 19.2085 43.3866 23.1024 43.0021C30.8147 42.224 38.5293 41.4819 46.2057 40.4059C49.9961 39.8808 53.7609 39.26 57.5041 38.4766C59.4868 38.0625 61.4498 37.6024 63.4179 37.1336C64.4447 36.8951 65.4546 36.5659 66.4618 36.2814C67.3001 36.0495 68.1087 35.7889 68.9397 35.5296C69.8029 35.2544 70.6699 34.9928 71.5222 34.6766C72.1409 34.4449 72.7596 34.2132 73.3834 33.9729C73.6952 33.8527 74.0194 33.7512 74.3326 33.6087C75.3096 33.1566 76.2728 32.7082 77.2534 32.2698C78.29 31.7944 79.2787 31.222 80.25 30.6396C81.4675 29.9108 82.6445 29.1123 83.7758 28.2528C85.8418 26.6743 87.697 24.8009 89.1183 22.6193C89.3106 22.3261 89.4992 22.0194 89.6742 21.7163C90.1729 20.8725 90.5709 20.0631 90.9516 19.2437Z" fill="#9EF300"/>
</svg>
